:SAMPLES-PER-SECOND 30
:FULLY-SPECIFIED
:DEGREES
22
root  15.3713 38.7356 23.3836 -157.404 -59.4757 160.853
RightUpLeg  -3.92603 -17.6975 -10.7458
RightLeg  19.8429 -1.99991 2.75512
RightFoot  -24.2417 0.155984 2.83187
RightToes  5.82063e-011 0 -3.6325e-017
Spine  -4.80393 3.50127 8.3601
Spine1  9.98723 4.72536 -5.91396
HEad  -3.25974 5.1432 -10.807
LeftShoulder1  -0.506875 4.77328 -33.7736
LeftArm  6.96839 14.7979 -38.8399
LeftForeArm  19.1501 -17.9951 -5.84923
LeftHand  -0.0199317 4.33549 -1.78295
RightShoulder  -0.870818 -5.90892 29.6096
RightArm  16.0081 -0.357565 48.6241
RightForeArm  12.7328 6.22986 8.40848
RightHand  -0.218019 0.242869 -4.54663
LeftUpLeg  -30.1174 2.84212 -14.4551
LeftLeg  28.7267 3.72623 2.53986
LeftFoot  -8.68693 0.0733776 -0.910694
LeftToes  1.81573e-012 2.54609e-010 -3.45981e-011
23
root  14.8067 38.6229 22.9691 -156.407 -60.5668 160.197
RightUpLeg  -2.46293 -17.8904 -11.004
RightLeg  19.1956 -2.8148 3.08272
RightFoot  -24.8611 0.209931 3.19635
RightToes  5.82063e-011 0 -3.6325e-017
Spine  -5.25347 3.28017 8.3934
Spine1  10.604 4.51685 -6.45953
HEad  -3.66517 5.69022 -10.2172
LeftShoulder1  -0.520994 4.81007 -33.7265
LeftArm  4.82926 15.1133 -38.6367
LeftForeArm  21.4351 -16.0424 -6.69099
LeftHand  -0.0183185 3.97574 -1.32362
RightShoulder  -0.870653 -5.90372 29.6781
RightArm  17.3483 0.717439 48.8012
RightForeArm  12.2334 7.71992 8.63871
RightHand  -0.212535 0.447247 -4.29574
LeftUpLeg  -30.6189 3.45497 -16.2972
LeftLeg  23.5893 4.31511 2.36533
LeftFoot  -8.43949 0.0904917 -1.57058
LeftToes  1.81573e-012 2.54609e-010 -3.45981e-011
24
root  14.1619 38.463 22.5361 -155.303 -61.7142 159.657
RightUpLeg  -1.18936 -18.2153 -11.1587
RightLeg  18.8271 -3.69199 3.48883
RightFoot  -25.5796 0.191327 2.9217
RightToes  5.82063e-011 0 -3.6325e-017
Spine  -5.90108 3.00019 8.21247
Spine1  11.1713 4.12935 -6.55568
HEad  -4.03702 5.81375 -10.3061
LeftShoulder1  -0.530894 4.83076 -33.8348
LeftArm  2.48633 15.2884 -38.452
LeftForeArm  24.2432 -13.9046 -7.48499
LeftHand  -0.0219583 4.27106 -1.74196
RightShoulder  -0.862919 -5.89086 29.5482
RightArm  18.9478 2.0533 49.0908
RightForeArm  11.4436 8.92963 8.76112
RightHand  -0.200762 0.764366 -3.88909
LeftUpLeg  -31.0665 3.70432 -18.1005
LeftLeg  18.4235 5.78493 2.47633
LeftFoot  -8.10233 0.106276 -2.04081
LeftToes  1.81573e-012 2.54609e-010 -3.45981e-011
25
root  13.4854 38.2808 22.0015 -154.705 -62.5395 159.652
RightUpLeg  0.113355 -17.808 -10.7278
RightLeg  18.2654 -4.86679 3.41891
RightFoot  -26.1369 0.196546 2.87696
RightToes  5.82063e-011 0 -3.6325e-017
Spine  -6.55127 2.86212 7.81999
Spine1  11.8547 3.9853 -6.7367
HEad  -4.0528 5.86063 -10.1355
LeftShoulder1  -0.42832 4.59111 -33.2569
LeftArm  0.254219 15.9257 -38.7627
LeftForeArm  26.6309 -12.2788 -7.88361
LeftHand  -0.0326673 5.07228 -1.84164
RightShoulder  -0.870568 -5.89798 29.7611
RightArm  19.4669 3.28267 49.4787
RightForeArm  10.9826 9.926 8.54909
RightHand  -0.204178 1.22689 -3.71695
LeftUpLeg  -31.208 4.25949 -19.435
LeftLeg  13.5286 7.69127 2.3406
LeftFoot  -7.42669 0.114826 -2.05232
LeftToes  1.81573e-012 2.54609e-010 -3.45981e-011
26
root  12.6739 38.0632 21.461 -153.911 -63.3518 159.615
RightUpLeg  1.4488 -18.112 -10.7222
RightLeg  17.9284 -4.93105 3.97066
RightFoot  -26.8055 0.274615 3.36209
RightToes  5.82063e-011 0 -3.6325e-017
Spine  -7.34143 2.53889 7.63433
Spine1  12.2817 3.76871 -7.34409
HEad  -4.59968 6.72637 -9.53386
LeftShoulder1  -0.405932 4.53356 -33.2793
LeftArm  -0.1032 16.9645 -38.1629
LeftForeArm  28.1893 -11.8331 -7.93832
LeftHand  -0.0158807 4.95814 -3.68311
RightShoulder  -0.871128 -5.90853 29.6231
RightArm  20.0963 4.3292 50.1896
RightForeArm  9.59987 10.5154 8.53101
RightHand  -0.251272 1.11636 -4.58465
LeftUpLeg  -31.3118 2.13749 -19.4119
LeftLeg  10.0239 12.1291 2.3349
LeftFoot  -6.56824 0.10919 -1.68491
LeftToes  1.81573e-012 2.54609e-010 -3.45981e-011
27
root  11.7327 37.7484 20.8584 -153.225 -63.7809 159.726
RightUpLeg  2.57597 -19.1671 -11.0477
RightLeg  18.5764 -3.97716 4.65179
RightFoot  -27.9134 0.320473 3.50399
RightToes  5.82063e-011 0 -3.6325e-017
Spine  -8.17163 2.29892 7.33286
Spine1  12.5252 3.62918 -7.89382
HEad  -4.98146 7.21726 -8.56907
LeftShoulder1  -0.396255 4.50436 -33.4072
LeftArm  -1.38447 17.4119 -37.4592
LeftForeArm  30.1817 -10.3635 -8.23239
LeftHand  -0.0155302 4.91243 -3.81995
RightShoulder  -0.846268 -5.85167 29.428
RightArm  20.1645 4.92096 50.8439
RightForeArm  8.61562 11.0072 8.36423
RightHand  -0.319227 1.68555 -5.4059
LeftUpLeg  -31.9822 -0.733645 -18.6847
LeftLeg  9.33558 15.0047 2.38529
LeftFoot  -6.31801 0.0780099 -0.845007
LeftToes  1.81573e-012 2.54609e-010 -3.45981e-011
28
root  10.6655 37.4283 20.1825 -152.526 -63.5336 159.641
RightUpLeg  3.99521 -21.8404 -12.2863
RightLeg  19.7878 -0.73399 5.62546
RightFoot  -28.89 0.371945 3.67689
RightToes  5.82063e-011 0 -3.6325e-017
Spine  -9.2664 2.15851 6.75703
Spine1  13.2291 3.9544 -9.1199
HEad  -5.63114 8.09649 -7.48682
LeftShoulder1  -0.306186 4.29792 -32.4517
LeftArm  -1.76755 18.7642 -37.5226
LeftForeArm  30.1577 -10.2516 -8.14929
LeftHand  -0.0806735 6.45865 -4.37148
RightShoulder  -0.910529 -5.99008 30.0365
RightArm  21.164 5.22841 51.1007
RightForeArm  7.98828 12.2277 8.02913
RightHand  -0.28346 1.35244 -5.02916
LeftUpLeg  -32.5436 -2.58514 -18.6891
LeftLeg  10.4624 13.2782 2.8237
LeftFoot  -5.54011 0.0482489 -0.426124
LeftToes  1.81573e-012 2.54609e-010 -3.45981e-011
29
root  9.57585 37.2232 19.4468 -151.824 -62.1785 159.234
RightUpLeg  5.42392 -26.9218 -14.5834
RightLeg  21.8265 6.22605 6.28534
RightFoot  -28.9864 0.583874 5.02358
RightToes  5.82063e-011 0 -3.6325e-017
Spine  -10.2309 2.22332 4.5372
Spine1  14.2896 4.531 -9.27703
HEad  -5.97447 8.88719 -6.88274
LeftShoulder1  -0.371445 4.45462 -32.9069
LeftArm  -1.76932 19.0713 -36.254
LeftForeArm  30.2183 -9.74368 -8.28535
LeftHand  -0.095866 6.74116 -4.57377
RightShoulder  -0.866595 -5.88176 29.8381
RightArm  22.8516 5.05507 51.5468
RightForeArm  6.40362 13.5966 7.70981
RightHand  -0.268505 1.75509 -4.52569
LeftUpLeg  -32.9975 -3.35273 -19.3069
LeftLeg  12.7587 12.3511 3.45555
LeftFoot  -1.462 -0.375186 4.16642
LeftToes  1.81573e-012 2.54609e-010 -3.45981e-011
